<svg xmlns="http://www.w3.org/2000/svg" viewBox="0 0 110 110">
<!-- SVG created with Arrow, by QuiverAI (https://quiver.ai) -->
  <style type="text/css">.cls-0 {fill:#FC8A17;}</style>
  <path class="cls-0" d="m100.9 47.2h-17.9c-3 0-6.7 2.8-6.7 6.8v2.3c0 2.9 2.2 6.5 6.3 6.6h18.3c4.2 0.1 6.5-4.2 6.5-6.6v-2.4c0-2.5-2.3-6.6-6.5-6.7zm-8.2-23.7c-0.2-3.5-3.1-7-6.9-7.3h-2.7c-3.3 0.5-6.7 3.3-6.8 7.4v2.1c-0.1 1.4-0.5 2.9-1.7 4.1-1.1 1.4-3.2 2.1-4.5 2h-1.4c-3.6 0.1-7 3.2-7 7.1v1.8c-0.2 3-2.4 6.3-7 6.5-3.8 0-7-2.7-7-7v-1.4c-0.4-3.6-3.1-6.9-7.1-6.9h-1.6c-2.8-0.2-5.8-2.7-5.8-6.3v-2.2c-0.2-3.2-2.6-6.7-6.4-7.2h-3.1c-3.6 0.4-6.4 3-6.8 7.1v2.4c0.2 4.4 3.4 7.2 7 7.2h2.1c3.8 0.1 5.9 2.9 6.2 6.2v2.1c0.3 3.5 2.7 7.1 7.4 7.1h1.4c2.5 0 6 1.9 6.1 6.4v0.9c0 4-3.2 6.8-6.5 6.8h-1.6c-3.3 0.2-6.8 3-6.8 6.6v1.2c-0.1 3.6-2.9 7-6.8 7l-1.4-0.1c-1.7 0.1-3.4 0.6-4.6 1.8-1.3 1.2-2.4 3-2.5 5.3v2.8c0.5 3.8 3.4 6.9 7.2 7h1.2c4.6 0.1 7.8-3.3 7.9-7.1v-1.8c0.1-3.4 2.7-6.4 6.5-6.5h1.4c4.2-0.2 6.5-3.5 6.6-6.7v-2.1c0.1-3.3 2.7-6.7 6.7-6.7h0.7c3.9 0 6.5 3.2 6.6 6.4v1.3c0 4.1 3 7.3 6.6 7.8h1.7c3.4 0 6.2 2.3 6.3 6.7v1.6c0.1 3.3 2.6 7 7.1 7.1h1.9c3.7 0 7.2-2.8 7.3-7.1v-2.4c0-2.9-2-7.1-7-7.3h-2c-3.7 0-6.5-3.1-6.5-6.7v-1.6c-0.3-3.4-2.9-6.5-6.6-6.6h-2.2c-1.8 0-6.1-1.6-6.2-6.8v-0.8c0.2-3.5 3.1-6.4 6.8-6.3h1.4c2 0 4.1-1 5-2 1.1-1.2 1.8-2.7 2-4.4v-2.6c0.3-3 2.7-6.4 6.6-6.5h1.8c3.8 0 6.9-3.2 7-7v-2.4zm-37-22.1h-2.4c-3.1 0.5-6 3.1-6.1 6.6v18.7c0 2.9 2.4 6 6 6.2h2.3c3.5 0.1 6.4-2.9 6.6-6v-18.4c0-3.6-2.8-6.8-6.4-7.1zm-0.4 75.8h-1.7c-3.3 0.2-6.4 3-6.4 7v17.6c0.3 3.3 2.8 6.6 6.8 6.8h1.5c4 0 6.5-3.2 6.6-6.6v-17.8c0.2-3.1-2.5-7-6.8-7zm-28.6-30.1h-17.9c-3.1 0-6.2 2.9-6.3 6.7v2.6c0.1 2.9 2.4 6.6 6.3 6.6l17.9-0.1c3.9 0.1 6.4-3.6 6.5-6.5v-2.6c0-3.1-2.6-6.7-6.5-6.7z"/>
</svg>